<?xml version="1.0" encoding="UTF-8" standalone="no"?>
<!DOCTYPE svg PUBLIC "-//W3C//DTD SVG 20010904//EN"
              "http://www.w3.org/TR/2001/REC-SVG-20010904/DTD/svg10.dtd">

<svg xmlns="http://www.w3.org/2000/svg"
     width="6.4in" height="3.6in"
     viewBox="0 0 1920 1080">
  <path id="Selection"
        fill="none" stroke="black" stroke-width="1"
        d="M 822.00,119.94
           C 822.00,119.94 822.00,123.00 822.00,123.00
             822.00,123.00 805.00,123.00 805.00,123.00
             805.00,123.00 805.00,126.00 805.00,126.00
             805.00,126.00 787.00,126.00 787.00,126.00
             787.00,126.00 787.00,131.00 787.00,131.00
             787.00,131.00 770.00,131.00 770.00,131.00
             770.00,131.00 770.00,136.00 770.00,136.00
             770.00,136.00 753.00,136.00 753.00,136.00
             753.00,136.00 753.00,142.00 753.00,142.00
             753.00,142.00 736.00,142.00 736.00,142.00
             736.00,142.00 736.00,149.00 736.00,149.00
             736.00,149.00 719.00,149.00 719.00,149.00
             719.00,149.00 719.00,156.00 719.00,156.00
             719.00,156.00 703.00,156.00 703.00,156.00
             703.00,156.00 703.00,163.00 703.00,163.00
             703.00,163.00 686.00,163.00 686.00,163.00
             686.00,163.00 686.00,170.00 686.00,170.00
             686.00,170.00 670.00,170.00 670.00,170.00
             670.00,170.00 670.00,177.00 670.00,177.00
             670.00,177.00 654.00,177.00 654.00,177.00
             654.00,177.00 654.00,185.00 654.00,185.00
             654.00,185.00 637.00,185.00 637.00,185.00
             637.00,185.00 637.00,192.00 637.00,192.00
             637.00,192.00 621.00,192.00 621.00,192.00
             621.00,192.00 621.00,200.00 621.00,200.00
             621.00,200.00 605.00,200.00 605.00,200.00
             605.00,200.00 605.00,209.00 605.00,209.00
             605.00,209.00 590.00,209.00 590.00,209.00
             590.00,209.00 590.00,218.00 590.00,218.00
             590.00,218.00 575.00,218.00 575.00,218.00
             575.00,218.00 575.00,229.00 575.00,229.00
             575.00,229.00 560.00,229.00 560.00,229.00
             560.00,229.00 560.00,238.00 560.00,238.00
             560.00,238.00 545.00,238.00 545.00,238.00
             545.00,238.00 545.00,249.00 545.00,249.00
             545.00,249.00 531.00,249.00 531.00,249.00
             531.00,249.00 531.00,260.00 531.00,260.00
             531.00,260.00 518.00,260.00 518.00,260.00
             518.00,260.00 518.00,274.00 518.00,274.00
             518.00,274.00 506.00,274.00 506.00,274.00
             506.00,274.00 506.00,286.00 506.00,286.00
             506.00,286.00 495.00,286.00 495.00,286.00
             495.00,286.00 495.00,301.00 495.00,301.00
             495.00,301.00 484.00,301.00 484.00,301.00
             484.00,301.00 484.00,316.00 484.00,316.00
             484.00,316.00 474.00,316.00 474.00,316.00
             474.00,316.00 474.00,331.00 474.00,331.00
             474.00,331.00 466.00,331.00 466.00,331.00
             466.00,331.00 466.00,347.00 466.00,347.00
             466.00,347.00 458.00,347.00 458.00,347.00
             458.00,347.00 458.00,364.00 458.00,364.00
             458.00,364.00 453.00,364.00 453.00,364.00
             453.00,364.00 453.00,381.00 453.00,381.00
             453.00,381.00 449.00,381.00 449.00,381.00
             449.00,381.00 449.00,399.00 449.00,399.00
             449.00,399.00 445.00,399.00 445.00,399.00
             445.00,399.00 445.00,416.00 445.00,416.00
             445.00,416.00 442.00,416.00 442.00,416.00
             442.00,416.00 442.00,535.00 442.00,535.00
             442.00,535.00 443.94,547.04 443.94,547.04
             443.94,547.04 443.94,561.00 443.94,561.00
             443.94,561.00 449.00,561.00 449.00,561.00
             449.00,561.00 449.00,579.00 449.00,579.00
             449.00,579.00 453.00,579.00 453.00,579.00
             453.00,579.00 453.00,596.00 453.00,596.00
             453.00,596.00 457.00,596.00 457.00,596.00
             457.00,596.00 457.00,613.00 457.00,613.00
             457.00,613.00 462.00,613.00 462.00,613.00
             462.00,613.00 462.00,631.00 462.00,631.00
             462.00,631.00 467.00,631.00 467.00,631.00
             467.00,631.00 467.00,648.00 467.00,648.00
             467.00,648.00 475.00,648.00 475.00,648.00
             475.00,648.00 475.00,664.00 475.00,664.00
             475.00,664.00 483.00,664.00 483.00,664.00
             483.00,664.00 483.00,679.00 483.00,679.00
             483.00,679.00 492.00,679.00 492.00,679.00
             492.00,679.00 492.00,694.00 492.00,694.00
             492.00,694.00 502.00,694.00 502.00,694.00
             502.00,694.00 502.00,710.00 502.00,710.00
             502.00,710.00 512.00,710.00 512.00,710.00
             512.00,710.00 512.00,725.00 512.00,725.00
             512.00,725.00 522.00,725.00 522.00,725.00
             522.00,725.00 522.00,739.00 522.00,739.00
             522.00,739.00 534.00,739.00 534.00,739.00
             534.00,739.00 534.00,753.00 534.00,753.00
             534.00,753.00 546.00,753.00 546.00,753.00
             546.00,753.00 546.00,765.00 546.00,765.00
             546.00,765.00 559.00,765.00 559.00,765.00
             559.00,765.00 559.00,778.00 559.00,778.00
             559.00,778.00 572.00,778.00 572.00,778.00
             572.00,778.00 572.00,791.00 572.00,791.00
             572.00,791.00 586.00,791.00 586.00,791.00
             586.00,791.00 586.00,801.00 586.00,801.00
             586.00,801.00 602.00,801.00 602.00,801.00
             602.00,801.00 602.00,810.00 602.00,810.00
             602.00,810.00 617.00,810.00 617.00,810.00
             617.00,810.00 617.00,819.00 617.00,819.00
             617.00,819.00 633.00,819.00 633.00,819.00
             633.00,819.00 633.00,827.00 633.00,827.00
             633.00,827.00 649.00,827.00 649.00,827.00
             649.00,827.00 649.00,834.00 649.00,834.00
             649.00,834.00 666.00,834.00 666.00,834.00
             666.00,834.00 666.00,839.00 666.00,839.00
             666.00,839.00 683.00,839.00 683.00,839.00
             683.00,839.00 683.00,845.00 683.00,845.00
             683.00,845.00 701.00,845.00 701.00,845.00
             701.00,845.00 701.00,850.00 701.00,850.00
             701.00,850.00 718.00,850.00 718.00,850.00
             718.00,850.00 718.00,854.00 718.00,854.00
             718.00,854.00 736.00,854.00 736.00,854.00
             736.00,854.00 736.00,858.00 736.00,858.00
             736.00,858.00 753.00,858.00 753.00,858.00
             753.00,858.00 753.00,862.06 753.00,862.06
             753.00,862.06 766.96,862.06 766.96,862.06
             766.96,862.06 777.00,864.00 777.00,864.00
             777.00,864.00 789.00,864.00 789.00,864.00
             789.00,864.00 789.00,867.00 789.00,867.00
             789.00,867.00 807.00,867.00 807.00,867.00
             807.00,867.00 807.00,870.00 807.00,870.00
             807.00,870.00 836.00,871.00 836.00,871.00
             836.00,871.00 853.00,873.00 853.00,873.00
             853.00,873.00 868.00,874.00 868.00,874.00
             868.00,874.00 905.00,874.00 905.00,874.00
             905.00,874.00 920.00,875.00 920.00,875.00
             920.00,875.00 997.00,875.00 997.00,875.00
             997.00,875.00 1013.00,874.00 1013.00,874.00
             1013.00,874.00 1041.00,873.00 1041.00,873.00
             1041.00,873.00 1041.00,870.00 1041.00,870.00
             1041.00,870.00 1059.00,870.00 1059.00,870.00
             1059.00,870.00 1059.00,866.00 1059.00,866.00
             1059.00,866.00 1077.00,866.00 1077.00,866.00
             1077.00,866.00 1077.00,861.00 1077.00,861.00
             1077.00,861.00 1094.00,861.00 1094.00,861.00
             1094.00,861.00 1094.00,856.00 1094.00,856.00
             1094.00,856.00 1111.00,856.00 1111.00,856.00
             1111.00,856.00 1111.00,848.00 1111.00,848.00
             1111.00,848.00 1127.00,848.00 1127.00,848.00
             1127.00,848.00 1127.00,838.00 1127.00,838.00
             1127.00,838.00 1142.00,838.00 1142.00,838.00
             1142.00,838.00 1142.00,827.00 1142.00,827.00
             1142.00,827.00 1155.00,827.00 1155.00,827.00
             1155.00,827.00 1155.00,812.00 1155.00,812.00
             1155.00,812.00 1166.00,812.00 1166.00,812.00
             1166.00,812.00 1166.00,798.00 1166.00,798.00
             1166.00,798.00 1176.00,798.00 1176.00,798.00
             1176.00,798.00 1176.00,783.00 1176.00,783.00
             1176.00,783.00 1185.00,783.00 1185.00,783.00
             1185.00,783.00 1185.00,769.00 1185.00,769.00
             1185.00,769.00 1195.00,769.00 1195.00,769.00
             1195.00,769.00 1195.00,753.00 1195.00,753.00
             1195.00,753.00 1203.00,753.00 1203.00,753.00
             1203.00,753.00 1203.00,737.00 1203.00,737.00
             1203.00,737.00 1212.00,737.00 1212.00,737.00
             1212.00,737.00 1212.00,721.00 1212.00,721.00
             1212.00,721.00 1220.00,721.00 1220.00,721.00
             1220.00,721.00 1220.00,706.00 1220.00,706.00
             1220.00,706.00 1228.00,706.00 1228.00,706.00
             1228.00,706.00 1228.00,690.00 1228.00,690.00
             1228.00,690.00 1235.00,690.00 1235.00,690.00
             1235.00,690.00 1235.00,674.00 1235.00,674.00
             1235.00,674.00 1244.00,674.00 1244.00,674.00
             1244.00,674.00 1244.00,659.00 1244.00,659.00
             1244.00,659.00 1253.00,659.00 1253.00,659.00
             1253.00,659.00 1253.00,643.00 1253.00,643.00
             1253.00,643.00 1260.00,643.00 1260.00,643.00
             1260.00,643.00 1260.00,552.00 1260.00,552.00
             1260.00,552.00 1169.00,552.00 1169.00,552.00
             1169.00,552.00 1169.00,568.00 1169.00,568.00
             1169.00,568.00 1162.00,568.00 1162.00,568.00
             1162.00,568.00 1162.00,583.00 1162.00,583.00
             1162.00,583.00 1153.00,583.00 1153.00,583.00
             1153.00,583.00 1153.00,599.00 1153.00,599.00
             1153.00,599.00 1144.00,599.00 1144.00,599.00
             1144.00,599.00 1144.00,615.00 1144.00,615.00
             1144.00,615.00 1137.00,615.00 1137.00,615.00
             1137.00,615.00 1137.00,630.00 1137.00,630.00
             1137.00,630.00 1129.00,630.00 1129.00,630.00
             1129.00,630.00 1129.00,646.00 1129.00,646.00
             1129.00,646.00 1121.00,646.00 1121.00,646.00
             1121.00,646.00 1121.00,662.00 1121.00,662.00
             1121.00,662.00 1112.00,662.00 1112.00,662.00
             1112.00,662.00 1112.00,678.00 1112.00,678.00
             1112.00,678.00 1104.00,678.00 1104.00,678.00
             1104.00,678.00 1104.00,692.00 1104.00,692.00
             1104.00,692.00 1094.00,692.00 1094.00,692.00
             1094.00,692.00 1094.00,707.00 1094.00,707.00
             1094.00,707.00 1085.00,707.00 1085.00,707.00
             1085.00,707.00 1085.00,721.00 1085.00,721.00
             1085.00,721.00 1075.00,721.00 1075.00,721.00
             1075.00,721.00 1075.00,736.00 1075.00,736.00
             1075.00,736.00 1064.00,736.00 1064.00,736.00
             1064.00,736.00 1064.00,747.00 1064.00,747.00
             1064.00,747.00 1051.00,747.00 1051.00,747.00
             1051.00,747.00 1051.00,757.00 1051.00,757.00
             1051.00,757.00 1036.00,757.00 1036.00,757.00
             1036.00,757.00 1036.00,765.00 1036.00,765.00
             1036.00,765.00 1020.00,765.00 1020.00,765.00
             1020.00,765.00 1020.00,770.00 1020.00,770.00
             1020.00,770.00 1003.00,770.00 1003.00,770.00
             1003.00,770.00 1003.00,775.00 1003.00,775.00
             1003.00,775.00 986.00,775.00 986.00,775.00
             986.00,775.00 986.00,779.00 986.00,779.00
             986.00,779.00 968.00,779.00 968.00,779.00
             968.00,779.00 968.00,782.04 968.00,782.04
             968.00,782.04 953.00,782.04 953.00,782.04
             953.00,782.04 939.00,782.96 939.00,782.96
             939.00,782.96 928.00,781.94 928.00,781.94
             928.00,781.94 920.04,781.94 920.04,781.94
             920.04,781.94 907.00,780.00 907.00,780.00
             907.00,780.00 895.00,779.04 895.00,779.04
             895.00,779.04 880.00,779.04 880.00,779.04
             880.00,779.04 880.00,776.00 880.00,776.00
             880.00,776.00 862.00,776.00 862.00,776.00
             862.00,776.00 862.00,772.94 862.00,772.94
             862.00,772.94 848.04,772.94 848.04,772.94
             848.04,772.94 838.00,771.00 838.00,771.00
             838.00,771.00 827.00,771.00 827.00,771.00
             827.00,771.00 827.00,767.00 827.00,767.00
             827.00,767.00 809.00,767.00 809.00,767.00
             809.00,767.00 809.00,763.00 809.00,763.00
             809.00,763.00 792.00,763.00 792.00,763.00
             792.00,763.00 792.00,759.00 792.00,759.00
             792.00,759.00 774.00,759.00 774.00,759.00
             774.00,759.00 774.00,754.00 774.00,754.00
             774.00,754.00 757.00,754.00 757.00,754.00
             757.00,754.00 757.00,748.00 757.00,748.00
             757.00,748.00 740.00,748.00 740.00,748.00
             740.00,748.00 740.00,743.00 740.00,743.00
             740.00,743.00 724.00,743.00 724.00,743.00
             724.00,743.00 724.00,736.00 724.00,736.00
             724.00,736.00 708.00,736.00 708.00,736.00
             708.00,736.00 708.00,728.00 708.00,728.00
             708.00,728.00 693.00,728.00 693.00,728.00
             693.00,728.00 693.00,719.00 693.00,719.00
             693.00,719.00 677.00,719.00 677.00,719.00
             677.00,719.00 677.00,710.00 677.00,710.00
             677.00,710.00 663.00,710.00 663.00,710.00
             663.00,710.00 663.00,700.00 663.00,700.00
             663.00,700.00 650.00,700.00 650.00,700.00
             650.00,700.00 650.00,687.00 650.00,687.00
             650.00,687.00 637.00,687.00 637.00,687.00
             637.00,687.00 637.00,674.00 637.00,674.00
             637.00,674.00 625.00,674.00 625.00,674.00
             625.00,674.00 625.00,662.00 625.00,662.00
             625.00,662.00 613.00,662.00 613.00,662.00
             613.00,662.00 613.00,648.00 613.00,648.00
             613.00,648.00 603.00,648.00 603.00,648.00
             603.00,648.00 603.00,634.00 603.00,634.00
             603.00,634.00 593.00,634.00 593.00,634.00
             593.00,634.00 593.00,619.00 593.00,619.00
             593.00,619.00 583.00,619.00 583.00,619.00
             583.00,619.00 583.00,603.00 583.00,603.00
             583.00,603.00 574.00,603.00 574.00,603.00
             574.00,603.00 574.00,588.00 574.00,588.00
             574.00,588.00 566.00,588.00 566.00,588.00
             566.00,588.00 566.00,573.00 566.00,573.00
             566.00,573.00 558.00,573.00 558.00,573.00
             558.00,573.00 558.00,557.00 558.00,557.00
             558.00,557.00 553.00,557.00 553.00,557.00
             553.00,557.00 553.00,540.00 553.00,540.00
             553.00,540.00 548.00,540.00 548.00,540.00
             548.00,540.00 548.00,522.00 548.00,522.00
             548.00,522.00 544.00,522.00 544.00,522.00
             544.00,522.00 544.00,505.00 544.00,505.00
             544.00,505.00 540.00,505.00 540.00,505.00
             540.00,505.00 540.00,488.00 540.00,488.00
             540.00,488.00 536.00,488.00 536.00,488.00
             536.00,488.00 536.00,472.00 536.00,472.00
             536.00,472.00 540.00,472.00 540.00,472.00
             540.00,472.00 540.00,455.00 540.00,455.00
             540.00,455.00 544.00,455.00 544.00,455.00
             544.00,455.00 544.00,438.00 544.00,438.00
             544.00,438.00 549.00,438.00 549.00,438.00
             549.00,438.00 549.00,422.00 549.00,422.00
             549.00,422.00 557.00,422.00 557.00,422.00
             557.00,422.00 557.00,407.00 557.00,407.00
             557.00,407.00 565.00,407.00 565.00,407.00
             565.00,407.00 565.00,392.00 565.00,392.00
             565.00,392.00 575.00,392.00 575.00,392.00
             575.00,392.00 575.00,377.00 575.00,377.00
             575.00,377.00 586.00,377.00 586.00,377.00
             586.00,377.00 586.00,365.00 586.00,365.00
             586.00,365.00 597.00,365.00 597.00,365.00
             597.00,365.00 597.00,351.00 597.00,351.00
             597.00,351.00 609.00,351.00 609.00,351.00
             609.00,351.00 609.00,340.00 609.00,340.00
             609.00,340.00 622.00,340.00 622.00,340.00
             622.00,340.00 622.00,329.00 622.00,329.00
             622.00,329.00 636.00,329.00 636.00,329.00
             636.00,329.00 636.00,320.00 636.00,320.00
             636.00,320.00 651.00,320.00 651.00,320.00
             651.00,320.00 651.00,309.00 651.00,309.00
             651.00,309.00 666.00,309.00 666.00,309.00
             666.00,309.00 666.00,300.00 666.00,300.00
             666.00,300.00 681.00,300.00 681.00,300.00
             681.00,300.00 681.00,291.00 681.00,291.00
             681.00,291.00 696.00,291.00 696.00,291.00
             696.00,291.00 696.00,283.00 696.00,283.00
             696.00,283.00 712.00,283.00 712.00,283.00
             712.00,283.00 712.00,276.00 712.00,276.00
             712.00,276.00 728.00,276.00 728.00,276.00
             728.00,276.00 728.00,268.00 728.00,268.00
             728.00,268.00 745.00,268.00 745.00,268.00
             745.00,268.00 745.00,261.00 745.00,261.00
             745.00,261.00 761.00,261.00 761.00,261.00
             761.00,261.00 761.00,254.00 761.00,254.00
             761.00,254.00 777.00,254.00 777.00,254.00
             777.00,254.00 777.00,247.00 777.00,247.00
             777.00,247.00 794.00,247.00 794.00,247.00
             794.00,247.00 794.00,240.00 794.00,240.00
             794.00,240.00 810.00,240.00 810.00,240.00
             810.00,240.00 810.00,233.00 810.00,233.00
             810.00,233.00 827.00,233.00 827.00,233.00
             827.00,233.00 827.00,227.00 827.00,227.00
             827.00,227.00 844.00,227.00 844.00,227.00
             844.00,227.00 844.00,222.00 844.00,222.00
             844.00,222.00 861.00,222.00 861.00,222.00
             861.00,222.00 861.00,217.00 861.00,217.00
             861.00,217.00 878.00,217.00 878.00,217.00
             878.00,217.00 878.00,214.00 878.00,214.00
             878.00,214.00 896.00,214.00 896.00,214.00
             896.00,214.00 896.00,210.94 896.00,210.94
             896.00,210.94 909.91,210.94 909.91,210.94
             909.91,210.94 922.00,209.00 922.00,209.00
             922.00,209.00 947.00,209.00 947.00,209.00
             947.00,209.00 947.00,212.00 947.00,212.00
             947.00,212.00 965.00,212.00 965.00,212.00
             965.00,212.00 965.00,215.00 965.00,215.00
             965.00,215.00 1056.00,215.00 1056.00,215.00
             1056.00,215.00 1056.00,124.00 1056.00,124.00
             1056.00,124.00 1038.00,124.00 1038.00,124.00
             1038.00,124.00 1038.00,121.00 1038.00,121.00
             1038.00,121.00 1020.00,121.00 1020.00,121.00
             1020.00,121.00 1020.00,118.00 1020.00,118.00
             1020.00,118.00 1003.00,118.00 1003.00,118.00
             1003.00,118.00 1003.00,115.00 1003.00,115.00
             1003.00,115.00 884.00,115.00 884.00,115.00
             884.00,115.00 861.09,116.11 861.09,116.11
             861.09,116.11 848.00,118.00 848.00,118.00
             848.00,118.00 835.96,119.94 835.96,119.94
             835.96,119.94 822.00,119.94 822.00,119.94 Z
           M 794.00,433.00
           C 794.00,433.00 794.00,467.00 794.00,467.00
             794.00,467.00 793.00,482.00 793.00,482.00
             793.00,482.00 794.00,550.00 794.00,550.00
             794.00,550.00 805.00,550.00 805.00,550.00
             805.00,550.00 805.00,518.00 805.00,518.00
             805.00,518.00 804.05,504.00 804.05,504.00
             804.05,504.00 804.05,489.00 804.05,489.00
             804.05,489.00 805.00,477.00 805.00,477.00
             805.00,477.00 805.00,414.00 805.00,414.00
             805.00,414.00 806.00,399.00 806.00,399.00
             806.00,399.00 808.17,363.00 808.17,363.00
             808.17,363.00 813.00,329.00 813.00,329.00
             813.00,329.00 807.00,329.00 807.00,329.00
             807.00,326.77 807.37,321.43 806.01,319.74
             804.40,317.75 800.33,318.01 798.00,318.00
             783.94,317.93 778.06,316.92 765.00,323.40
             745.41,333.12 727.10,347.24 715.42,366.00
             713.44,369.19 711.20,372.44 709.98,376.00
             705.70,388.39 703.98,397.97 704.00,411.00
             704.01,416.47 703.95,423.46 708.61,427.25
             713.14,430.94 727.98,431.93 734.00,432.00
             734.00,432.00 754.00,432.00 754.00,432.00
             761.33,432.04 762.48,432.91 769.00,433.71
             774.58,434.40 788.82,434.47 794.00,433.00 Z
           M 952.42,321.69
           C 952.42,321.69 944.33,325.11 944.33,325.11
             936.72,329.63 934.10,338.74 934.00,347.00
             933.95,351.54 933.26,360.11 935.70,363.82
             940.18,370.63 952.41,372.96 960.00,372.85
             960.00,372.85 970.00,372.85 970.00,372.85
             971.98,373.00 974.84,373.09 976.71,372.85
             982.32,370.98 990.25,362.39 992.05,356.83
             993.16,353.40 993.01,349.57 993.00,346.00
             993.00,342.92 993.21,339.89 991.69,337.09
             986.07,326.71 963.62,318.93 952.42,321.69 Z
           M 801.00,330.00
           C 801.00,330.00 795.13,352.00 795.13,352.00
             795.13,352.00 795.13,362.00 795.13,362.00
             795.13,362.00 794.00,374.00 794.00,374.00
             794.00,374.00 794.00,394.00 794.00,394.00
             793.99,401.08 791.45,417.75 784.76,421.28
             780.28,424.11 773.88,421.89 769.00,421.28
             769.00,421.28 743.00,421.28 743.00,421.28
             736.84,420.92 721.08,420.23 717.27,415.21
             715.15,412.41 715.46,408.27 715.94,405.00
             717.00,397.59 720.42,385.36 724.21,379.00
             732.61,364.88 735.11,363.19 746.73,352.77
             755.61,344.79 761.98,340.04 773.00,334.97
             779.85,331.83 786.10,328.62 794.00,329.18
             794.00,329.18 801.00,330.00 801.00,330.00 Z
           M 958.00,334.47
           C 960.00,334.22 960.87,334.03 962.91,334.47
             967.06,335.60 979.13,342.71 980.30,347.00
             981.62,351.82 971.20,361.03 966.83,361.75
             961.55,362.62 949.09,358.81 946.52,353.89
             942.59,346.38 951.09,336.34 958.00,334.47 Z
           M 973.00,490.00
           C 973.00,490.00 984.00,490.00 984.00,490.00
             984.00,473.86 984.48,478.05 988.26,463.00
             988.26,463.00 991.59,448.00 991.59,448.00
             995.91,434.55 1004.15,420.44 1010.68,408.00
             1010.68,408.00 1021.01,388.00 1021.01,388.00
             1021.01,388.00 1028.05,377.84 1028.05,377.84
             1028.05,377.84 1040.31,358.00 1040.31,358.00
             1044.15,351.64 1046.86,351.57 1047.00,344.00
             1047.00,344.00 1047.00,339.00 1047.00,339.00
             1044.01,339.00 1038.89,338.64 1036.29,339.93
             1032.45,341.84 1030.07,346.48 1027.99,350.00
             1027.99,350.00 1016.24,368.84 1016.24,368.84
             1007.94,380.31 1006.35,385.16 1000.11,397.00
             1000.11,397.00 991.17,413.00 991.17,413.00
             991.17,413.00 986.12,425.00 986.12,425.00
             986.12,425.00 980.59,438.00 980.59,438.00
             980.59,438.00 977.12,453.00 977.12,453.00
             975.04,461.75 973.01,465.77 973.00,475.00
             973.00,475.00 973.00,490.00 973.00,490.00 Z
           M 906.00,344.00
           C 897.08,342.82 889.91,342.99 881.00,343.00
             864.94,343.03 856.98,352.50 847.27,363.88
             839.61,372.86 832.64,383.89 828.81,395.17
             827.45,399.17 825.06,415.57 825.00,420.00
             825.00,420.00 824.00,439.00 824.00,439.00
             824.00,439.00 824.00,464.00 824.00,464.00
             824.02,477.83 830.65,505.12 835.86,518.00
             837.41,521.81 840.52,530.79 844.38,532.44
             845.88,533.08 848.36,532.99 850.00,533.00
             850.00,533.00 854.00,533.00 854.00,533.00
             863.51,532.88 873.52,527.28 882.00,523.23
             892.68,518.14 911.03,506.14 918.96,497.54
             918.96,497.54 925.30,489.34 925.30,489.34
             927.99,485.95 931.92,481.71 933.82,477.99
             937.52,470.69 940.90,455.19 941.00,447.00
             941.00,447.00 941.00,428.00 941.00,428.00
             940.98,418.68 935.78,394.22 931.51,386.00
             926.40,376.17 919.96,366.86 913.54,357.87
             908.97,351.49 906.29,352.47 906.00,344.00 Z
           M 883.00,354.00
           C 883.00,354.00 883.00,359.00 883.00,359.00
             887.54,359.60 893.06,359.82 896.98,362.11
             902.21,365.15 906.23,371.93 909.42,377.00
             917.05,389.11 921.51,394.90 925.15,409.00
             925.15,409.00 929.96,433.00 929.96,433.00
             930.52,443.18 927.19,461.13 922.10,469.96
             922.10,469.96 914.76,479.54 914.76,479.54
             911.60,483.73 909.25,487.18 905.34,490.85
             899.43,496.38 893.62,499.48 887.09,504.00
             880.80,508.34 870.94,513.67 863.91,516.61
             862.10,517.37 855.74,519.94 854.12,519.94
             849.96,519.94 846.65,508.49 845.59,505.00
             840.69,488.80 835.03,472.15 835.00,455.00
             834.98,443.41 836.33,414.41 839.81,404.17
             843.61,392.96 850.40,382.70 857.81,373.65
             865.16,364.67 871.84,357.97 883.00,354.00 Z
           M 1025.44,407.79
           C 1019.44,411.32 1018.92,417.52 1018.00,424.00
             1016.13,437.21 1015.80,440.57 1016.00,454.00
             1016.06,457.45 1016.23,460.06 1018.91,462.60
             1021.48,465.04 1024.69,464.96 1028.00,465.00
             1034.63,465.08 1040.13,465.82 1045.91,461.91
             1051.04,458.43 1059.18,446.71 1060.93,440.83
             1062.06,437.03 1062.05,432.93 1062.00,429.00
             1061.96,426.20 1061.93,423.64 1060.55,421.09
             1055.42,411.65 1035.64,404.82 1025.44,407.79 Z
           M 1032.00,420.00
           C 1036.70,421.12 1047.79,426.05 1049.29,431.00
             1050.05,433.53 1047.80,436.22 1046.56,438.29
             1043.62,443.15 1038.84,451.16 1033.04,452.70
             1028.38,453.93 1026.97,449.73 1027.30,445.99
             1028.08,437.08 1030.04,428.66 1032.00,420.00 Z" />
</svg>
