<?xml version="1.0" encoding="UTF-8" standalone="no"?>
<!DOCTYPE svg PUBLIC "-//W3C//DTD SVG 20010904//EN"
              "http://www.w3.org/TR/2001/REC-SVG-20010904/DTD/svg10.dtd">

<svg xmlns="http://www.w3.org/2000/svg"
     width="6.4in" height="3.6in"
     viewBox="0 0 1920 1080">
  <path id="Selection"
        fill="none" stroke="black" stroke-width="1"
        d="M 822.00,119.94
           C 822.00,119.94 822.00,123.00 822.00,123.00
             822.00,123.00 805.00,123.00 805.00,123.00
             805.00,123.00 805.00,126.00 805.00,126.00
             805.00,126.00 787.00,126.00 787.00,126.00
             787.00,126.00 787.00,131.00 787.00,131.00
             787.00,131.00 770.00,131.00 770.00,131.00
             770.00,131.00 770.00,136.00 770.00,136.00
             770.00,136.00 753.00,136.00 753.00,136.00
             753.00,136.00 753.00,142.00 753.00,142.00
             753.00,142.00 736.00,142.00 736.00,142.00
             736.00,142.00 736.00,149.00 736.00,149.00
             736.00,149.00 719.00,149.00 719.00,149.00
             719.00,149.00 719.00,156.00 719.00,156.00
             719.00,156.00 703.00,156.00 703.00,156.00
             703.00,156.00 703.00,163.00 703.00,163.00
             703.00,163.00 686.00,163.00 686.00,163.00
             686.00,163.00 686.00,170.00 686.00,170.00
             686.00,170.00 670.00,170.00 670.00,170.00
             670.00,170.00 670.00,177.00 670.00,177.00
             670.00,177.00 654.00,177.00 654.00,177.00
             654.00,177.00 654.00,185.00 654.00,185.00
             654.00,185.00 637.00,185.00 637.00,185.00
             637.00,185.00 637.00,192.00 637.00,192.00
             637.00,192.00 621.00,192.00 621.00,192.00
             621.00,192.00 621.00,200.00 621.00,200.00
             621.00,200.00 605.00,200.00 605.00,200.00
             605.00,200.00 605.00,209.00 605.00,209.00
             605.00,209.00 590.00,209.00 590.00,209.00
             590.00,209.00 590.00,218.00 590.00,218.00
             590.00,218.00 575.00,218.00 575.00,218.00
             575.00,218.00 575.00,229.00 575.00,229.00
             575.00,229.00 560.00,229.00 560.00,229.00
             560.00,229.00 560.00,238.00 560.00,238.00
             560.00,238.00 545.00,238.00 545.00,238.00
             545.00,238.00 545.00,249.00 545.00,249.00
             545.00,249.00 531.00,249.00 531.00,249.00
             531.00,249.00 531.00,260.00 531.00,260.00
             531.00,260.00 518.00,260.00 518.00,260.00
             518.00,260.00 518.00,274.00 518.00,274.00
             518.00,274.00 506.00,274.00 506.00,274.00
             506.00,274.00 506.00,286.00 506.00,286.00
             506.00,286.00 495.00,286.00 495.00,286.00
             495.00,286.00 495.00,301.00 495.00,301.00
             495.00,301.00 484.00,301.00 484.00,301.00
             484.00,301.00 484.00,316.00 484.00,316.00
             484.00,316.00 474.00,316.00 474.00,316.00
             474.00,316.00 474.00,331.00 474.00,331.00
             474.00,331.00 466.00,331.00 466.00,331.00
             466.00,331.00 466.00,347.00 466.00,347.00
             466.00,347.00 458.00,347.00 458.00,347.00
             458.00,347.00 458.00,364.00 458.00,364.00
             458.00,364.00 453.00,364.00 453.00,364.00
             453.00,364.00 453.00,381.00 453.00,381.00
             453.00,381.00 449.00,381.00 449.00,381.00
             449.00,381.00 449.00,399.00 449.00,399.00
             449.00,399.00 445.00,399.00 445.00,399.00
             445.00,399.00 445.00,416.00 445.00,416.00
             445.00,416.00 442.00,416.00 442.00,416.00
             442.00,416.00 442.00,535.00 442.00,535.00
             442.00,535.00 443.94,547.04 443.94,547.04
             443.94,547.04 443.94,561.00 443.94,561.00
             443.94,561.00 449.00,561.00 449.00,561.00
             449.00,561.00 449.00,579.00 449.00,579.00
             449.00,579.00 453.00,579.00 453.00,579.00
             453.00,579.00 453.00,596.00 453.00,596.00
             453.00,596.00 457.00,596.00 457.00,596.00
             457.00,596.00 457.00,613.00 457.00,613.00
             457.00,613.00 462.00,613.00 462.00,613.00
             462.00,613.00 462.00,631.00 462.00,631.00
             462.00,631.00 467.00,631.00 467.00,631.00
             467.00,631.00 467.00,648.00 467.00,648.00
             467.00,648.00 475.00,648.00 475.00,648.00
             475.00,648.00 475.00,664.00 475.00,664.00
             475.00,664.00 483.00,664.00 483.00,664.00
             483.00,664.00 483.00,679.00 483.00,679.00
             483.00,679.00 492.00,679.00 492.00,679.00
             492.00,679.00 492.00,694.00 492.00,694.00
             492.00,694.00 502.00,694.00 502.00,694.00
             502.00,694.00 502.00,710.00 502.00,710.00
             502.00,710.00 512.00,710.00 512.00,710.00
             512.00,710.00 512.00,725.00 512.00,725.00
             512.00,725.00 522.00,725.00 522.00,725.00
             522.00,725.00 522.00,739.00 522.00,739.00
             522.00,739.00 534.00,739.00 534.00,739.00
             534.00,739.00 534.00,753.00 534.00,753.00
             534.00,753.00 546.00,753.00 546.00,753.00
             546.00,753.00 546.00,765.00 546.00,765.00
             546.00,765.00 559.00,765.00 559.00,765.00
             559.00,765.00 559.00,778.00 559.00,778.00
             559.00,778.00 572.00,778.00 572.00,778.00
             572.00,778.00 572.00,791.00 572.00,791.00
             572.00,791.00 586.00,791.00 586.00,791.00
             586.00,791.00 586.00,801.00 586.00,801.00
             586.00,801.00 602.00,801.00 602.00,801.00
             602.00,801.00 602.00,810.00 602.00,810.00
             602.00,810.00 617.00,810.00 617.00,810.00
             617.00,810.00 617.00,819.00 617.00,819.00
             617.00,819.00 633.00,819.00 633.00,819.00
             633.00,819.00 633.00,827.00 633.00,827.00
             633.00,827.00 649.00,827.00 649.00,827.00
             649.00,827.00 649.00,834.00 649.00,834.00
             649.00,834.00 666.00,834.00 666.00,834.00
             666.00,834.00 666.00,839.00 666.00,839.00
             666.00,839.00 683.00,839.00 683.00,839.00
             683.00,839.00 683.00,845.00 683.00,845.00
             683.00,845.00 701.00,845.00 701.00,845.00
             701.00,845.00 701.00,850.00 701.00,850.00
             701.00,850.00 718.00,850.00 718.00,850.00
             718.00,850.00 718.00,854.00 718.00,854.00
             718.00,854.00 736.00,854.00 736.00,854.00
             736.00,854.00 736.00,858.00 736.00,858.00
             736.00,858.00 753.00,858.00 753.00,858.00
             753.00,858.00 753.00,862.06 753.00,862.06
             753.00,862.06 766.96,862.06 766.96,862.06
             766.96,862.06 777.00,864.00 777.00,864.00
             777.00,864.00 789.00,864.00 789.00,864.00
             789.00,864.00 789.00,867.00 789.00,867.00
             789.00,867.00 807.00,867.00 807.00,867.00
             807.00,867.00 807.00,870.00 807.00,870.00
             807.00,870.00 836.00,871.00 836.00,871.00
             836.00,871.00 853.00,873.00 853.00,873.00
             853.00,873.00 868.00,874.00 868.00,874.00
             868.00,874.00 905.00,874.00 905.00,874.00
             905.00,874.00 920.00,875.00 920.00,875.00
             920.00,875.00 997.00,875.00 997.00,875.00
             997.00,875.00 1013.00,874.00 1013.00,874.00
             1013.00,874.00 1041.00,873.00 1041.00,873.00
             1041.00,873.00 1041.00,870.00 1041.00,870.00
             1041.00,870.00 1059.00,870.00 1059.00,870.00
             1059.00,870.00 1059.00,866.00 1059.00,866.00
             1059.00,866.00 1077.00,866.00 1077.00,866.00
             1077.00,866.00 1077.00,861.00 1077.00,861.00
             1077.00,861.00 1094.00,861.00 1094.00,861.00
             1094.00,861.00 1094.00,856.00 1094.00,856.00
             1094.00,856.00 1111.00,856.00 1111.00,856.00
             1111.00,856.00 1111.00,848.00 1111.00,848.00
             1111.00,848.00 1127.00,848.00 1127.00,848.00
             1127.00,848.00 1127.00,838.00 1127.00,838.00
             1127.00,838.00 1142.00,838.00 1142.00,838.00
             1142.00,838.00 1142.00,827.00 1142.00,827.00
             1142.00,827.00 1155.00,827.00 1155.00,827.00
             1155.00,827.00 1155.00,812.00 1155.00,812.00
             1155.00,812.00 1166.00,812.00 1166.00,812.00
             1166.00,812.00 1166.00,798.00 1166.00,798.00
             1166.00,798.00 1176.00,798.00 1176.00,798.00
             1176.00,798.00 1176.00,783.00 1176.00,783.00
             1176.00,783.00 1185.00,783.00 1185.00,783.00
             1185.00,783.00 1185.00,769.00 1185.00,769.00
             1185.00,769.00 1195.00,769.00 1195.00,769.00
             1195.00,769.00 1195.00,753.00 1195.00,753.00
             1195.00,753.00 1203.00,753.00 1203.00,753.00
             1203.00,753.00 1203.00,737.00 1203.00,737.00
             1203.00,737.00 1212.00,737.00 1212.00,737.00
             1212.00,737.00 1212.00,721.00 1212.00,721.00
             1212.00,721.00 1220.00,721.00 1220.00,721.00
             1220.00,721.00 1220.00,706.00 1220.00,706.00
             1220.00,706.00 1228.00,706.00 1228.00,706.00
             1228.00,706.00 1228.00,690.00 1228.00,690.00
             1228.00,690.00 1235.00,690.00 1235.00,690.00
             1235.00,690.00 1235.00,674.00 1235.00,674.00
             1235.00,674.00 1244.00,674.00 1244.00,674.00
             1244.00,674.00 1244.00,659.00 1244.00,659.00
             1244.00,659.00 1253.00,659.00 1253.00,659.00
             1253.00,659.00 1253.00,643.00 1253.00,643.00
             1253.00,643.00 1260.00,643.00 1260.00,643.00
             1260.00,643.00 1260.00,552.00 1260.00,552.00
             1260.00,552.00 1169.00,552.00 1169.00,552.00
             1169.00,552.00 1169.00,568.00 1169.00,568.00
             1169.00,568.00 1162.00,568.00 1162.00,568.00
             1162.00,568.00 1162.00,583.00 1162.00,583.00
             1162.00,583.00 1153.00,583.00 1153.00,583.00
             1153.00,583.00 1153.00,599.00 1153.00,599.00
             1153.00,599.00 1144.00,599.00 1144.00,599.00
             1144.00,599.00 1144.00,615.00 1144.00,615.00
             1144.00,615.00 1137.00,615.00 1137.00,615.00
             1137.00,615.00 1137.00,630.00 1137.00,630.00
             1137.00,630.00 1129.00,630.00 1129.00,630.00
             1129.00,630.00 1129.00,646.00 1129.00,646.00
             1129.00,646.00 1121.00,646.00 1121.00,646.00
             1121.00,646.00 1121.00,662.00 1121.00,662.00
             1121.00,662.00 1112.00,662.00 1112.00,662.00
             1112.00,662.00 1112.00,678.00 1112.00,678.00
             1112.00,678.00 1104.00,678.00 1104.00,678.00
             1104.00,678.00 1104.00,692.00 1104.00,692.00
             1104.00,692.00 1094.00,692.00 1094.00,692.00
             1094.00,692.00 1094.00,707.00 1094.00,707.00
             1094.00,707.00 1085.00,707.00 1085.00,707.00
             1085.00,707.00 1085.00,721.00 1085.00,721.00
             1085.00,721.00 1075.00,721.00 1075.00,721.00
             1075.00,721.00 1075.00,736.00 1075.00,736.00
             1075.00,736.00 1064.00,736.00 1064.00,736.00
             1064.00,736.00 1064.00,747.00 1064.00,747.00
             1064.00,747.00 1051.00,747.00 1051.00,747.00
             1051.00,747.00 1051.00,757.00 1051.00,757.00
             1051.00,757.00 1036.00,757.00 1036.00,757.00
             1036.00,757.00 1036.00,765.00 1036.00,765.00
             1036.00,765.00 1020.00,765.00 1020.00,765.00
             1020.00,765.00 1020.00,770.00 1020.00,770.00
             1020.00,770.00 1003.00,770.00 1003.00,770.00
             1003.00,770.00 1003.00,775.00 1003.00,775.00
             1003.00,775.00 986.00,775.00 986.00,775.00
             986.00,775.00 986.00,779.00 986.00,779.00
             986.00,779.00 968.00,779.00 968.00,779.00
             968.00,779.00 968.00,782.04 968.00,782.04
             968.00,782.04 953.00,782.04 953.00,782.04
             953.00,782.04 939.00,782.96 939.00,782.96
             939.00,782.96 928.00,781.94 928.00,781.94
             928.00,781.94 920.04,781.94 920.04,781.94
             920.04,781.94 907.00,780.00 907.00,780.00
             907.00,780.00 895.00,779.04 895.00,779.04
             895.00,779.04 880.00,779.04 880.00,779.04
             880.00,779.04 880.00,776.00 880.00,776.00
             880.00,776.00 862.00,776.00 862.00,776.00
             862.00,776.00 862.00,772.94 862.00,772.94
             862.00,772.94 848.04,772.94 848.04,772.94
             848.04,772.94 838.00,771.00 838.00,771.00
             838.00,771.00 827.00,771.00 827.00,771.00
             827.00,771.00 827.00,767.00 827.00,767.00
             827.00,767.00 809.00,767.00 809.00,767.00
             809.00,767.00 809.00,763.00 809.00,763.00
             809.00,763.00 792.00,763.00 792.00,763.00
             792.00,763.00 792.00,759.00 792.00,759.00
             792.00,759.00 774.00,759.00 774.00,759.00
             774.00,759.00 774.00,754.00 774.00,754.00
             774.00,754.00 757.00,754.00 757.00,754.00
             757.00,754.00 757.00,748.00 757.00,748.00
             757.00,748.00 740.00,748.00 740.00,748.00
             740.00,748.00 740.00,743.00 740.00,743.00
             740.00,743.00 724.00,743.00 724.00,743.00
             724.00,743.00 724.00,736.00 724.00,736.00
             724.00,736.00 708.00,736.00 708.00,736.00
             708.00,736.00 708.00,728.00 708.00,728.00
             708.00,728.00 693.00,728.00 693.00,728.00
             693.00,728.00 693.00,719.00 693.00,719.00
             693.00,719.00 677.00,719.00 677.00,719.00
             677.00,719.00 677.00,710.00 677.00,710.00
             677.00,710.00 663.00,710.00 663.00,710.00
             663.00,710.00 663.00,700.00 663.00,700.00
             663.00,700.00 650.00,700.00 650.00,700.00
             650.00,700.00 650.00,687.00 650.00,687.00
             650.00,687.00 637.00,687.00 637.00,687.00
             637.00,687.00 637.00,674.00 637.00,674.00
             637.00,674.00 625.00,674.00 625.00,674.00
             625.00,674.00 625.00,662.00 625.00,662.00
             625.00,662.00 613.00,662.00 613.00,662.00
             613.00,662.00 613.00,648.00 613.00,648.00
             613.00,648.00 603.00,648.00 603.00,648.00
             603.00,648.00 603.00,634.00 603.00,634.00
             603.00,634.00 593.00,634.00 593.00,634.00
             593.00,634.00 593.00,619.00 593.00,619.00
             593.00,619.00 583.00,619.00 583.00,619.00
             583.00,619.00 583.00,603.00 583.00,603.00
             583.00,603.00 574.00,603.00 574.00,603.00
             574.00,603.00 574.00,588.00 574.00,588.00
             574.00,588.00 566.00,588.00 566.00,588.00
             566.00,588.00 566.00,573.00 566.00,573.00
             566.00,573.00 558.00,573.00 558.00,573.00
             558.00,573.00 558.00,557.00 558.00,557.00
             558.00,557.00 553.00,557.00 553.00,557.00
             553.00,557.00 553.00,540.00 553.00,540.00
             553.00,540.00 548.00,540.00 548.00,540.00
             548.00,540.00 548.00,522.00 548.00,522.00
             548.00,522.00 544.00,522.00 544.00,522.00
             544.00,522.00 544.00,505.00 544.00,505.00
             544.00,505.00 540.00,505.00 540.00,505.00
             540.00,505.00 540.00,488.00 540.00,488.00
             540.00,488.00 536.00,488.00 536.00,488.00
             536.00,488.00 536.00,472.00 536.00,472.00
             536.00,472.00 540.00,472.00 540.00,472.00
             540.00,472.00 540.00,455.00 540.00,455.00
             540.00,455.00 544.00,455.00 544.00,455.00
             544.00,455.00 544.00,438.00 544.00,438.00
             544.00,438.00 549.00,438.00 549.00,438.00
             549.00,438.00 549.00,422.00 549.00,422.00
             549.00,422.00 557.00,422.00 557.00,422.00
             557.00,422.00 557.00,407.00 557.00,407.00
             557.00,407.00 565.00,407.00 565.00,407.00
             565.00,407.00 565.00,392.00 565.00,392.00
             565.00,392.00 575.00,392.00 575.00,392.00
             575.00,392.00 575.00,377.00 575.00,377.00
             575.00,377.00 586.00,377.00 586.00,377.00
             586.00,377.00 586.00,365.00 586.00,365.00
             586.00,365.00 597.00,365.00 597.00,365.00
             597.00,365.00 597.00,351.00 597.00,351.00
             597.00,351.00 609.00,351.00 609.00,351.00
             609.00,351.00 609.00,340.00 609.00,340.00
             609.00,340.00 622.00,340.00 622.00,340.00
             622.00,340.00 622.00,329.00 622.00,329.00
             622.00,329.00 636.00,329.00 636.00,329.00
             636.00,329.00 636.00,320.00 636.00,320.00
             636.00,320.00 651.00,320.00 651.00,320.00
             651.00,320.00 651.00,309.00 651.00,309.00
             651.00,309.00 666.00,309.00 666.00,309.00
             666.00,309.00 666.00,300.00 666.00,300.00
             666.00,300.00 681.00,300.00 681.00,300.00
             681.00,300.00 681.00,291.00 681.00,291.00
             681.00,291.00 696.00,291.00 696.00,291.00
             696.00,291.00 696.00,283.00 696.00,283.00
             696.00,283.00 712.00,283.00 712.00,283.00
             712.00,283.00 712.00,276.00 712.00,276.00
             712.00,276.00 728.00,276.00 728.00,276.00
             728.00,276.00 728.00,268.00 728.00,268.00
             728.00,268.00 745.00,268.00 745.00,268.00
             745.00,268.00 745.00,261.00 745.00,261.00
             745.00,261.00 761.00,261.00 761.00,261.00
             761.00,261.00 761.00,254.00 761.00,254.00
             761.00,254.00 777.00,254.00 777.00,254.00
             777.00,254.00 777.00,247.00 777.00,247.00
             777.00,247.00 794.00,247.00 794.00,247.00
             794.00,247.00 794.00,240.00 794.00,240.00
             794.00,240.00 810.00,240.00 810.00,240.00
             810.00,240.00 810.00,233.00 810.00,233.00
             810.00,233.00 827.00,233.00 827.00,233.00
             827.00,233.00 827.00,227.00 827.00,227.00
             827.00,227.00 844.00,227.00 844.00,227.00
             844.00,227.00 844.00,222.00 844.00,222.00
             844.00,222.00 861.00,222.00 861.00,222.00
             861.00,222.00 861.00,217.00 861.00,217.00
             861.00,217.00 878.00,217.00 878.00,217.00
             878.00,217.00 878.00,214.00 878.00,214.00
             878.00,214.00 896.00,214.00 896.00,214.00
             896.00,214.00 896.00,210.94 896.00,210.94
             896.00,210.94 909.91,210.94 909.91,210.94
             909.91,210.94 922.00,209.00 922.00,209.00
             922.00,209.00 947.00,209.00 947.00,209.00
             947.00,209.00 947.00,212.00 947.00,212.00
             947.00,212.00 965.00,212.00 965.00,212.00
             965.00,212.00 965.00,215.00 965.00,215.00
             965.00,215.00 1056.00,215.00 1056.00,215.00
             1056.00,215.00 1056.00,124.00 1056.00,124.00
             1056.00,124.00 1038.00,124.00 1038.00,124.00
             1038.00,124.00 1038.00,121.00 1038.00,121.00
             1038.00,121.00 1020.00,121.00 1020.00,121.00
             1020.00,121.00 1020.00,118.00 1020.00,118.00
             1020.00,118.00 1003.00,118.00 1003.00,118.00
             1003.00,118.00 1003.00,115.00 1003.00,115.00
             1003.00,115.00 884.00,115.00 884.00,115.00
             884.00,115.00 861.09,116.11 861.09,116.11
             861.09,116.11 848.00,118.00 848.00,118.00
             848.00,118.00 835.96,119.94 835.96,119.94
             835.96,119.94 822.00,119.94 822.00,119.94 Z
           M 739.00,496.00
           C 738.06,499.85 738.02,501.07 738.00,505.00
             738.00,505.00 738.00,521.00 738.00,521.00
             738.16,534.23 748.08,552.98 756.86,562.66
             760.67,566.86 766.27,571.01 770.91,574.22
             776.11,577.81 777.12,579.41 783.58,581.97
             792.66,585.58 810.07,586.02 820.00,586.00
             825.40,585.99 827.77,585.99 833.00,584.13
             844.68,580.00 849.85,573.32 850.00,561.00
             850.04,557.26 850.27,552.55 849.09,549.04
             846.67,541.80 835.48,529.71 828.70,525.94
             828.70,525.94 799.00,511.58 799.00,511.58
             799.00,511.58 776.01,501.10 776.01,501.10
             769.85,497.68 760.54,492.07 754.00,490.00
             764.84,477.53 767.57,476.87 780.99,468.05
             780.99,468.05 791.01,461.09 791.01,461.09
             794.61,459.51 798.21,460.23 802.00,459.83
             810.30,458.94 823.89,453.83 826.45,444.91
             827.17,442.41 827.03,436.79 827.00,434.00
             826.77,415.01 806.37,392.10 787.00,392.16
             787.00,392.16 750.00,392.16 750.00,392.16
             750.00,392.16 736.00,395.87 736.00,395.87
             724.50,398.80 713.04,405.47 708.46,417.00
             704.72,426.43 704.95,433.19 705.00,443.00
             705.05,454.21 709.31,471.92 716.57,480.56
             719.51,484.07 722.97,486.46 726.61,489.13
             731.20,492.49 733.41,494.37 739.00,496.00 Z
           M 1005.00,515.00
           C 1007.42,515.00 1013.45,515.43 1015.28,514.01
             1017.12,512.58 1017.31,509.05 1019.46,505.30
             1019.46,505.30 1031.05,488.09 1031.05,488.09
             1031.05,488.09 1041.00,474.83 1041.00,474.83
             1041.00,474.83 1059.86,448.17 1059.86,448.17
             1059.86,448.17 1065.85,440.42 1065.85,440.42
             1065.85,440.42 1072.86,428.01 1072.86,428.01
             1076.92,421.28 1083.42,414.83 1085.46,406.91
             1086.19,404.08 1086.00,399.07 1086.00,396.00
             1086.00,396.00 1075.54,397.01 1075.54,397.01
             1075.54,397.01 1069.91,406.01 1069.91,406.01
             1069.91,406.01 1056.83,426.96 1056.83,426.96
             1056.83,426.96 1047.34,440.09 1047.34,440.09
             1047.34,440.09 1022.47,474.72 1022.47,474.72
             1022.47,474.72 1006.76,499.04 1006.76,499.04
             1006.76,499.04 1005.00,515.00 1005.00,515.00 Z
           M 1015.00,405.00
           C 1015.00,405.00 1015.00,398.19 1015.00,398.19
             1011.92,398.00 1005.74,397.83 1003.00,398.19
             995.75,399.83 986.51,407.20 983.88,414.09
             982.94,416.54 983.01,419.41 983.00,422.00
             982.97,429.19 981.48,439.21 987.61,444.26
             993.29,448.93 1003.01,449.09 1010.00,449.00
             1017.05,448.90 1024.60,445.92 1028.34,439.56
             1031.03,435.01 1031.88,421.05 1029.97,416.09
             1027.69,410.12 1021.22,405.40 1015.00,405.00 Z
           M 746.00,449.00
           C 746.00,449.00 746.00,460.00 746.00,460.00
             746.00,460.00 764.00,461.00 764.00,461.00
             764.00,461.00 751.14,471.51 751.14,471.51
             751.14,471.51 742.00,482.00 742.00,482.00
             737.11,479.07 730.15,474.12 726.57,469.70
             721.55,463.52 716.26,446.99 716.34,439.00
             716.40,433.55 719.55,424.48 722.89,420.18
             725.27,417.12 730.26,412.92 733.65,411.04
             740.08,407.47 757.63,403.09 765.00,403.19
             765.00,403.19 784.00,403.19 784.00,403.19
             792.65,405.11 803.02,414.06 808.00,421.11
             811.74,426.40 817.86,434.96 811.83,440.53
             808.00,444.07 802.74,442.57 798.00,443.87
             788.39,446.53 784.31,449.95 774.00,450.00
             774.00,450.00 746.00,449.00 746.00,449.00 Z
           M 1007.00,411.00
           C 1007.00,411.00 1007.00,416.00 1007.00,416.00
             1011.44,416.58 1012.77,417.49 1015.69,420.95
             1021.93,428.32 1015.84,434.93 1008.00,436.53
             1000.89,437.97 992.35,431.84 994.66,424.04
             996.20,418.86 1002.38,413.51 1007.00,411.00 Z
           M 888.00,419.00
           C 885.53,425.14 883.90,424.52 879.68,428.82
             879.68,428.82 867.35,444.09 867.35,444.09
             867.35,444.09 863.63,452.00 863.63,452.00
             861.61,456.03 859.03,459.66 857.60,464.00
             852.37,479.85 852.81,496.54 853.00,513.00
             853.09,520.73 854.23,521.18 856.08,528.00
             859.67,541.21 861.76,547.15 871.65,557.21
             873.74,559.33 876.45,562.21 879.09,563.56
             882.91,565.52 891.60,565.99 896.00,565.85
             896.00,565.85 906.00,565.85 906.00,565.85
             916.46,564.16 932.22,556.00 941.09,550.19
             945.80,547.10 953.87,541.46 956.99,536.87
             962.28,529.09 963.10,522.17 963.00,513.00
             963.00,513.00 961.32,489.00 961.32,489.00
             957.65,472.76 943.42,451.78 932.12,439.66
             923.65,430.59 918.22,430.15 913.00,424.00
             913.00,424.00 921.00,423.00 921.00,423.00
             921.00,423.00 921.00,412.00 921.00,412.00
             921.00,412.00 904.00,413.44 904.00,413.44
             904.00,413.44 888.00,419.00 888.00,419.00 Z
           M 898.09,434.06
           C 907.08,436.40 919.19,446.60 925.14,453.73
             935.52,466.16 950.80,488.40 951.00,505.00
             951.00,505.00 951.00,511.00 951.00,511.00
             951.00,513.70 951.09,516.35 950.39,518.99
             946.99,531.75 931.78,539.65 921.00,545.32
             912.18,549.96 902.43,555.56 892.00,553.78
             884.49,552.50 876.35,541.34 872.86,535.00
             869.21,528.36 868.96,525.91 867.08,519.00
             867.08,519.00 864.30,509.00 864.30,509.00
             862.92,499.64 865.60,482.01 868.60,473.00
             868.60,473.00 875.14,460.00 875.14,460.00
             878.54,452.52 889.62,435.43 898.09,434.06 Z
           M 1072.00,477.00
           C 1072.00,477.00 1072.00,488.00 1072.00,488.00
             1073.54,488.05 1075.33,487.96 1076.78,488.60
             1078.73,489.46 1079.57,491.08 1080.20,493.02
             1082.81,501.12 1077.60,504.45 1076.00,511.00
             1076.00,511.00 1072.00,511.00 1072.00,511.00
             1072.00,511.00 1068.08,496.00 1068.08,496.00
             1068.08,496.00 1071.00,473.00 1071.00,473.00
             1071.00,473.00 1066.00,473.00 1066.00,473.00
             1057.39,473.16 1057.09,479.63 1057.00,487.00
             1056.89,496.70 1055.19,519.44 1066.21,524.13
             1068.43,525.08 1072.55,525.06 1075.00,524.98
             1089.02,524.58 1092.95,509.54 1093.00,498.00
             1093.02,493.07 1092.85,481.04 1088.43,477.99
             1086.92,476.95 1084.75,477.03 1083.00,477.00
             1083.00,477.00 1072.00,477.00 1072.00,477.00 Z
           M 751.00,504.00
           C 751.00,504.00 760.72,508.33 760.72,508.33
             760.72,508.33 768.00,512.68 768.00,512.68
             768.00,512.68 791.00,523.00 791.00,523.00
             791.00,523.00 815.99,535.14 815.99,535.14
             823.39,538.58 836.16,549.98 837.49,558.04
             839.21,568.48 822.45,575.42 814.00,574.82
             810.56,574.57 796.28,572.34 793.42,571.29
             788.72,569.57 784.80,566.60 780.83,563.67
             768.09,554.23 760.02,546.08 753.88,531.00
             750.63,523.00 746.21,512.25 751.00,504.00 Z" />
</svg>
