<?xml version="1.0" encoding="UTF-8" standalone="no"?>
<!DOCTYPE svg PUBLIC "-//W3C//DTD SVG 20010904//EN"
              "http://www.w3.org/TR/2001/REC-SVG-20010904/DTD/svg10.dtd">

<svg xmlns="http://www.w3.org/2000/svg"
     width="6.4in" height="3.6in"
     viewBox="0 0 1920 1080">
  <path id="Selection"
        fill="none" stroke="black" stroke-width="1"
        d="M 0.00,0.00
           C 0.00,0.00 0.00,1080.00 0.00,1080.00
             0.00,1080.00 1920.00,1080.00 1920.00,1080.00
             1920.00,1080.00 1920.00,0.00 1920.00,0.00
             1920.00,0.00 0.00,0.00 0.00,0.00 Z
           M 965.00,155.00
           C 963.20,163.42 959.69,170.06 960.04,179.00
             960.04,179.00 961.00,191.00 961.00,191.00
             961.00,191.00 961.00,216.00 961.00,216.00
             961.00,216.00 960.00,231.00 960.00,231.00
             960.00,231.00 960.00,381.00 960.00,381.00
             960.00,381.00 959.00,398.00 959.00,398.00
             959.00,398.00 959.00,459.00 959.00,459.00
             959.00,459.00 963.04,495.00 963.04,495.00
             963.04,495.00 963.04,506.00 963.04,506.00
             963.04,506.00 964.00,518.00 964.00,518.00
             964.00,518.00 964.00,534.00 964.00,534.00
             964.00,534.00 963.00,549.00 963.00,549.00
             963.00,549.00 963.00,620.00 963.00,620.00
             963.00,620.00 966.71,654.00 966.71,654.00
             966.71,654.00 968.00,672.00 968.00,672.00
             968.00,672.00 1004.00,670.00 1004.00,670.00
             1004.00,670.00 1019.00,669.00 1019.00,669.00
             1019.00,669.00 1061.00,665.17 1061.00,665.17
             1061.00,665.17 1099.00,662.00 1099.00,662.00
             1099.00,662.00 1108.00,662.00 1108.00,662.00
             1108.00,662.00 1116.00,660.98 1116.00,660.98
             1116.00,660.98 1126.00,660.98 1126.00,660.98
             1126.00,660.98 1136.00,660.00 1136.00,660.00
             1136.00,660.00 1171.00,658.00 1171.00,658.00
             1171.00,658.00 1186.00,658.00 1186.00,658.00
             1186.00,658.00 1201.41,659.02 1201.41,659.02
             1201.41,659.02 1203.00,662.00 1203.00,662.00
             1189.63,660.24 1176.38,661.00 1163.00,662.00
             1163.00,662.00 1154.00,662.00 1154.00,662.00
             1154.00,662.00 1144.00,663.00 1144.00,663.00
             1144.00,663.00 1112.00,665.00 1112.00,665.00
             1112.00,665.00 1103.00,665.00 1103.00,665.00
             1103.00,665.00 1065.00,668.17 1065.00,668.17
             1065.00,668.17 1022.00,672.00 1022.00,672.00
             1022.00,672.00 1008.00,673.00 1008.00,673.00
             1008.00,673.00 968.00,675.00 968.00,675.00
             968.00,675.00 968.00,682.00 968.00,682.00
             968.00,682.00 965.00,682.00 965.00,682.00
             964.66,672.39 961.31,674.76 954.00,675.90
             954.00,675.90 946.00,675.90 946.00,675.90
             946.00,675.90 934.00,676.84 934.00,676.84
             934.00,676.84 883.00,676.84 883.00,676.84
             883.00,676.84 871.00,676.84 871.00,676.84
             871.00,676.84 855.00,677.84 855.00,677.84
             855.00,677.84 796.00,677.84 796.00,677.84
             796.00,677.84 787.00,677.84 787.00,677.84
             787.00,677.84 770.00,678.84 770.00,678.84
             770.00,678.84 752.00,678.84 752.00,678.84
             752.00,678.84 743.00,678.84 743.00,678.84
             743.00,678.84 706.00,680.51 706.00,680.51
             701.79,680.25 698.12,681.43 694.00,681.83
             694.00,681.83 672.00,683.09 672.00,683.09
             672.00,683.09 660.00,684.00 660.00,684.00
             660.00,684.00 616.00,686.17 616.00,686.17
             616.00,686.17 594.00,690.00 594.00,690.00
             596.07,684.67 604.00,684.37 609.00,683.59
             623.17,681.37 642.49,681.02 657.00,681.00
             657.00,681.00 681.00,679.00 681.00,679.00
             681.00,679.00 690.00,679.00 690.00,679.00
             695.04,678.35 701.05,676.82 706.00,677.09
             721.40,677.94 726.48,675.86 740.00,675.09
             744.29,674.85 746.13,675.65 750.00,675.96
             750.00,675.96 765.00,675.96 765.00,675.96
             765.00,675.96 784.00,674.09 784.00,674.09
             784.00,674.09 797.00,675.00 797.00,675.00
             797.00,675.00 852.00,675.00 852.00,675.00
             852.00,675.00 871.00,673.09 871.00,673.09
             871.00,673.09 884.00,674.00 884.00,674.00
             884.00,674.00 931.00,674.00 931.00,674.00
             931.00,674.00 950.00,672.71 950.00,672.71
             950.00,672.71 964.00,671.00 964.00,671.00
             964.00,671.00 961.83,640.00 961.83,640.00
             961.83,640.00 960.00,623.00 960.00,623.00
             960.00,623.00 960.00,545.00 960.00,545.00
             960.00,545.00 960.96,529.00 960.96,529.00
             960.96,529.00 960.96,516.00 960.96,516.00
             960.96,516.00 959.92,506.00 959.92,506.00
             959.92,506.00 959.92,494.00 959.92,494.00
             959.92,494.00 956.00,462.00 956.00,462.00
             956.00,462.00 956.00,394.00 956.00,394.00
             956.00,394.00 957.00,379.00 957.00,379.00
             957.00,379.00 957.00,227.00 957.00,227.00
             957.00,227.00 958.00,212.00 958.00,212.00
             958.00,212.00 958.00,193.00 958.00,193.00
             958.00,193.00 957.00,181.00 957.00,181.00
             957.00,181.00 952.10,198.00 952.10,198.00
             952.10,198.00 928.48,267.00 928.48,267.00
             928.48,267.00 913.37,297.00 913.37,297.00
             901.31,321.11 884.38,355.85 876.00,381.00
             876.00,381.00 862.32,416.00 862.32,416.00
             862.32,416.00 858.64,427.91 858.64,427.91
             858.64,427.91 855.61,435.04 855.61,435.04
             855.61,435.04 848.92,452.43 848.92,452.43
             847.86,453.64 847.31,453.53 846.00,454.00
             846.43,445.15 851.48,434.33 854.86,426.00
             854.86,426.00 858.91,414.00 858.91,414.00
             858.91,414.00 867.40,394.00 867.40,394.00
             867.40,394.00 875.37,371.00 875.37,371.00
             875.37,371.00 878.91,363.00 878.91,363.00
             878.91,363.00 891.90,332.00 891.90,332.00
             891.90,332.00 921.73,271.00 921.73,271.00
             921.73,271.00 925.48,264.00 925.48,264.00
             925.48,264.00 939.00,225.00 939.00,225.00
             939.00,225.00 950.86,188.00 950.86,188.00
             950.86,188.00 956.79,168.00 956.79,168.00
             957.25,164.41 956.29,160.60 956.00,157.00
             956.00,157.00 960.00,158.00 960.00,158.00
             960.00,158.00 965.00,155.00 965.00,155.00 Z" />
</svg>
