<svg xmlns="http://www.w3.org/2000/svg"  viewBox="0 0 64 64" width="64px" height="64px"><linearGradient id="C1l9a4a8M77FWyEhaz28ga" x1="32" x2="32" y1="18.708" y2="47.297" gradientUnits="userSpaceOnUse"><stop offset="0" stop-color="#6dc7ff"/><stop offset="1" stop-color="#e6abff"/></linearGradient><path fill="url(#C1l9a4a8M77FWyEhaz28ga)" d="M43,27H21c-3.677,0-6,2.462-6,5.5c0,3.038,2.323,5.5,6,5.5h22c3.677,0,6-2.462,6-5.5	C49,29.462,46.677,27,43,27z"/><linearGradient id="C1l9a4a8M77FWyEhaz28gb" x1="32" x2="32" y1="16" y2="49" gradientUnits="userSpaceOnUse"><stop offset="0" stop-color="#1a6dff"/><stop offset="1" stop-color="#c822ff"/></linearGradient><path fill="none" stroke="url(#C1l9a4a8M77FWyEhaz28gb)" stroke-miterlimit="10" stroke-width="2" d="M44.667,17H19.333C10.865,17,4,23.94,4,32.5	C4,41.06,10.865,48,19.333,48h25.333C53.135,48,60,41.06,60,32.5C60,23.94,53.135,17,44.667,17z"/></svg>